# xmcd
#
# Track frame offsets:
#	150
#	14899
#	30112
#	46360
#	64731
#	86588
#	103915
#	119693
#	139113
#	156814
#	174500
#	192224
#
# Disc length: 2773 seconds
#
# Revision: 0
# Processed by: cddbd v1.5.2PL0 Copyright (c) Steve Scherf et al.
# Submitted via: dBpowerAMP V4.0
#
DISCID=a20ad30c
DTITLE=Griggs, Andy - The Good Life
DYEAR=2008
DGENRE=Country
TTITLE0=Tattoo Rose
TTITLE1=What If It's Me
TTITLE2=It's All About The Money
TTITLE3=Tears And Time
TTITLE4=Long Way Down
TTITLE5=Shadows
TTITLE6=You Can't Drive My Cadillac
TTITLE7=If You Had Called Yesterday
TTITLE8=Long Stretch Of Lonesome
TTITLE9=New Orleans Ladies
TTITLE10=Burning A Hole In My Head
TTITLE11=Time Is A Gypsy
EXTD=
EXTT0=
EXTT1=
EXTT2=
EXTT3=
EXTT4=
EXTT5=
EXTT6=
EXTT7=
EXTT8=
EXTT9=
EXTT10=
EXTT11=
PLAYORDER=
